<?xml version="1.0" encoding="utf-8"?>
<!-- Generator: Adobe Illustrator 21.0.0, SVG Export Plug-In . SVG Version: 6.00 Build 0)  -->
<svg version="1.1" id="Capa_1" xmlns="http://www.w3.org/2000/svg" xmlns:xlink="http://www.w3.org/1999/xlink" x="0px" y="0px"
	 viewBox="0 0 251.1 251.1" style="enable-background:new 0 0 251.1 251.1;" xml:space="preserve">
<style type="text/css">
	.st0{fill:none;stroke:#000000;stroke-width:5;stroke-linecap:round;stroke-linejoin:round;stroke-miterlimit:10;}
	.st1{fill:none;stroke:#000000;stroke-width:5;stroke-linecap:round;stroke-miterlimit:10;}
</style>
<path class="st0" d="M202.2,122.7c4.1-25.4-6.3-33.9-9.9-36c1.4-16.6-8-23.7-11-25.6c-0.3-3-1.1-5.9-2.7-8.5
	c-5.9-10.1-19-13.3-20.9-13.8c-4.3-4.5-9-6.8-13.8-6.8h-0.2c-8.4,0.1-14.8,7-17.8,11.1c-3-4-9.4-10.9-17.8-11.1h-0.2
	c-4.9,0-9.5,2.3-13.8,6.8c-1.9,0.4-15,3.7-20.9,13.8c-1.5,2.6-2.4,5.5-2.7,8.5c-3,1.9-12.4,9-11,25.6c-3.6,2.1-14.1,10.6-10,36
	c-1,1.9-7.4,14.6-4,26.7c0.8,2.8,2.1,5.3,3.8,7.6c-0.3,3.2-0.7,18.2,17.7,32c7,5.3,13.7,13,19.7,22.8l0.6,0.7
	c0.4,0.3,8.2,6.6,17.6,6.6c1.7,0,3.6-0.2,5.4-0.8c6.5-1.9,11.7-7.2,15.5-15.7c3.8,8.5,9,13.8,15.5,15.7c1.8,0.5,3.7,0.8,5.4,0.8
	c9.4,0,17.2-6.3,17.6-6.6l0.6-0.7c6-9.9,12.7-17.5,19.7-22.8c18.4-13.8,18-28.8,17.7-32c1.7-2.3,3-4.8,3.8-7.6
	C209.7,137.3,203.3,124.6,202.2,122.7L202.2,122.7z"/>
<g>
	<g>
		<path class="st1" d="M99.3,48.2c0,0-17,9.8,1.3,25.1"/>
		<path class="st1" d="M104.8,59.5c0,0,7.6,19.8,0,45.2"/>
		<path class="st1" d="M92.1,72.4c0,0-10.2,11.6-5.2,23.8c5,12.1,3.2,21.3,3.2,21.3"/>
		<path class="st1" d="M100.6,121.1c0,0,16.1,3.3,17.4-7.8"/>
		<path class="st1" d="M72.5,117.5c0,0,7.8-5.8,13.1,7.5s10.4,8.1,15,6.3"/>
		<path class="st1" d="M75.8,122.8c0,0-1,10.8,7.6,21.8s14.7,17.5,5.4,27c0,0-5,4-15.1,3.2"/>
		<path class="st1" d="M56.1,117.2c0,0,8.2,6.4,6.5,22.2c-1.7,15.7,9.7,25.3,15.3,23.5"/>
		<path class="st1" d="M107.2,202.1c0,0-12.6,7.4-30.2-23.4"/>
		<path class="st1" d="M96.1,178c0,0,16.5,0.5,18.7,17.1"/>
	</g>
	<g>
		<path class="st1" d="M152.4,48.2c0,0,17,9.8-1.3,25.1"/>
		<path class="st1" d="M146.9,59.5c0,0-7.6,19.8,0,45.2"/>
		<path class="st1" d="M159.6,72.4c0,0,10.2,11.6,5.2,23.8s-3.2,21.3-3.2,21.3"/>
		<path class="st1" d="M151.1,121.1c0,0-16.1,3.3-17.4-7.8"/>
		<path class="st1" d="M179.1,117.5c0,0-7.8-5.8-13.1,7.5c-5.2,13.3-10.4,8.1-15,6.3"/>
		<path class="st1" d="M175.9,122.8c0,0,1,10.8-7.6,21.8s-14.7,17.5-5.4,27c0,0,5,4,15.1,3.2"/>
		<path class="st1" d="M195.6,117.2c0,0-8.2,6.4-6.5,22.2s-9.7,25.3-15.3,23.5"/>
		<path class="st1" d="M144.5,202.1c0,0,12.6,7.4,30.2-23.4"/>
		<path class="st1" d="M155.6,178c0,0-16.5,0.5-18.7,17.1"/>
	</g>
</g>
<line class="st1" x1="125.9" y1="43" x2="125.8" y2="202.7"/>
</svg>
