<?xml version="1.0" encoding="utf-8"?>
<!-- Generator: Adobe Illustrator 21.0.0, SVG Export Plug-In . SVG Version: 6.00 Build 0)  -->
<svg version="1.1" id="Capa_1" xmlns="http://www.w3.org/2000/svg" xmlns:xlink="http://www.w3.org/1999/xlink" x="0px" y="0px"
	 viewBox="0 0 251.1 251.1" style="enable-background:new 0 0 251.1 251.1;" xml:space="preserve">
<path d="M125.5,0C56.2,0,0,56.2,0,125.5s56.2,125.5,125.5,125.5s125.5-56.2,125.5-125.5S194.9,0,125.5,0z M202.9,138
	c-4,17.1-19.4,46.5-77.4,64.6c0,0,0,0,0,0c0,0,0,0,0,0l0,0c-57.9-18-73.4-47.5-77.4-64.6c-1.4-4.2-2.1-8.7-2.1-13.4
	c0-23.9,19.4-43.2,43.2-43.2c15.2,0,28.6,7.8,36.3,19.7c7.7-11.9,21.1-19.7,36.3-19.7c23.9,0,43.2,19.4,43.2,43.2
	C205,129.3,204.3,133.8,202.9,138z"/>
</svg>
