<?xml version="1.0" encoding="utf-8"?>
<!-- Generator: Adobe Illustrator 21.1.0, SVG Export Plug-In . SVG Version: 6.00 Build 0)  -->
<svg version="1.1" id="Capa_1" xmlns="http://www.w3.org/2000/svg" xmlns:xlink="http://www.w3.org/1999/xlink" x="0px" y="0px"
	 viewBox="0 0 356.5 356.4" style="enable-background:new 0 0 356.5 356.4;" xml:space="preserve">
<style type="text/css">
	.st0{fill:#CC814D;}
	.st1{fill:#FFFFFF;}
	.st2{fill:none;}
</style>
<circle class="st0" cx="178.2" cy="178.2" r="178.2"/>
<path class="st0" d="M224.3,199.4"/>
<g>
	<path class="st1" d="M226.9,195.1c9.5,6.1,15.6,16.7,15.6,28.4c0,5.4-1.3,10.7-3.8,15.5c8.8,1.8,17,6.6,24,15.1
		c0.6,0.7,1.6,0.3,1.7-0.6C265.3,220.9,245.1,202.6,226.9,195.1z"/>
	<path class="st1" d="M236.4,238.3c2.4-4.5,3.7-9.6,3.7-14.7c0-14.7-10.4-27.6-24.7-30.7c-2.4-0.4-4.6-0.7-6.6-0.7
		c-17.5,0-32.6,1.1-54.9,14.8c-17,10.6-30,6.3-36.1,2.9c-8.5-4.7-13.3-12.5-13.8-18c-18.7,16.1-14.5,44.5,6.8,64.2
		c20.4,17.4,52.7,16.4,81.8-4.3c13.9-9.8,29.5-15.2,43.8-13.2C236.3,238.5,236.4,238.4,236.4,238.3z"/>
	<path class="st1" d="M214.9,125.5c-12.9-1.7-24.5-5.6-33.2-14.2l-40.6-23c-0.9-0.5-2.1,0.1-2,1.2l0.1,42.7l-33.5,57.9
		c0.2,0.1,0-0.1,0,0c0.1,4.9,5.5,13.5,13.5,17.8c7,3.8,18.4,6.3,33.5-3c0.6-0.4,1.2-0.7,1.7-1.1c0.3-0.2,0.6-0.4,1-0.6
		c0.3-0.1,0.5-0.3,0.8-0.4c0.4-0.3,0.9-0.5,1.3-0.7c0.1-0.1,0.3-0.2,0.4-0.2c0.5-0.3,1-0.5,1.5-0.8c0.1,0,0.1-0.1,0.2-0.1
		c0.5-0.3,1-0.5,1.5-0.8c0,0,0.1-0.1,0.1-0.1c0.5-0.3,1-0.5,1.5-0.8c0,0,0.1,0,0.1-0.1c0.5-0.3,1.1-0.5,1.6-0.8c0,0,0,0,0,0
		c5-2.4,9.8-4.2,14.6-5.5l0,0c-9.9-28.2,1.8-55.9,33.7-57.5l3.9-6.2C217.5,127.7,216.6,125.8,214.9,125.5z"/>
	<path class="st1" d="M177.9,106.4l-10.4-17.9c-0.7-1.2-2.5-1.2-3.2,0l-4.5,7.6L177.9,106.4z"/>
	<rect x="54.5" y="50.6" class="st2" width="247.5" height="255.3"/>
</g>
</svg>
