<?xml version="1.0" encoding="utf-8"?>
<!-- Generator: Adobe Illustrator 21.1.0, SVG Export Plug-In . SVG Version: 6.00 Build 0)  -->
<svg version="1.1" id="Capa_1" xmlns="http://www.w3.org/2000/svg" xmlns:xlink="http://www.w3.org/1999/xlink" x="0px" y="0px"
	 viewBox="0 0 173 173" style="enable-background:new 0 0 173 173;" xml:space="preserve">
<path d="M86.5,0C38.7,0,0,38.7,0,86.5C0,134.3,38.7,173,86.5,173S173,134.3,173,86.5C173,38.7,134.3,0,86.5,0z M140,108.8
	c-9.4,19.9-28.1,32.2-49.9,33.1c-0.7,0-1.5,0-2.2,0c-10.2,0-20.4-2.6-29.4-7.6c-10.3-5.7-19-14.4-25.1-25.2c-1.2-2.1-0.5-4.8,1.7-6
	c2.1-1.2,4.8-0.5,6,1.7c10.5,18.5,28.7,29,48.8,28.3c18.5-0.7,34.3-11.2,42.3-28c1-2.2,3.7-3.2,5.9-2.1
	C140.1,103.9,141,106.6,140,108.8z"/>
</svg>
