<?xml version="1.0" encoding="utf-8"?>
<!-- Generator: Adobe Illustrator 21.1.0, SVG Export Plug-In . SVG Version: 6.00 Build 0)  -->
<svg version="1.1" id="Capa_1" xmlns="http://www.w3.org/2000/svg" xmlns:xlink="http://www.w3.org/1999/xlink" x="0px" y="0px"
	 viewBox="0 0 356.5 356.4" style="enable-background:new 0 0 356.5 356.4;" xml:space="preserve">
<style type="text/css">
	.st0{fill:#CC814D;}
	.st1{fill:url(#SVGID_1_);}
	.st2{fill:url(#SVGID_2_);}
	.st3{fill:url(#SVGID_3_);}
	.st4{fill:url(#SVGID_4_);}
	.st5{fill:none;}
</style>
<path class="st0" d="M224.3,199.4"/>
<g>
	<linearGradient id="SVGID_1_" gradientUnits="userSpaceOnUse" x1="242.2" y1="243.2803" x2="294.6369" y2="243.2803">
		<stop  offset="0" style="stop-color:#ECDCC7"/>
		<stop  offset="1" style="stop-color:#FFF7E5"/>
	</linearGradient>
	<path class="st1" d="M242.2,201.8c13.2,8.5,21.8,23.4,21.8,39.7c0,7.5-1.8,15-5.3,21.7c12.3,2.5,23.8,9.2,33.6,21.1
		c0.8,0.9,2.3,0.4,2.3-0.8C295.8,237.8,267.5,212.3,242.2,201.8z"/>
	<linearGradient id="SVGID_2_" gradientUnits="userSpaceOnUse" x1="53.7793" y1="250.8033" x2="260.6" y2="250.8033">
		<stop  offset="0" style="stop-color:#ECDCC7"/>
		<stop  offset="1" style="stop-color:#FFF7E5"/>
	</linearGradient>
	<path class="st2" d="M255.5,262c3.3-6.3,5.1-13.4,5.1-20.5c0-20.5-14.5-38.5-34.6-42.8c-3.3-0.6-6.4-0.9-9.2-0.9
		c-24.5,0-45.6,1.5-76.6,20.7c-23.8,14.7-41.8,8.9-50.5,4.1c-11.9-6.6-18.6-17.5-19.3-25.1c-26.2,22.4-20.2,62.1,9.4,89.6
		c28.5,24.2,73.6,22.9,114.2-6c19.4-13.7,41.2-21.3,61.2-18.4C255.3,262.4,255.4,262.2,255.5,262z"/>
	<linearGradient id="SVGID_3_" gradientUnits="userSpaceOnUse" x1="72.9" y1="138.5302" x2="228.2057" y2="138.5302">
		<stop  offset="0" style="stop-color:#ECDCC7"/>
		<stop  offset="1" style="stop-color:#FFF7E5"/>
	</linearGradient>
	<path class="st3" d="M225.4,104.7c-18.1-2.3-34.2-7.9-46.4-19.8l-56.6-32.2c-1.3-0.7-2.9,0.2-2.9,1.7l0.1,59.6l-46.7,80.9
		c0.2,0.1,0-0.1,0,0c0.1,6.8,7.7,18.8,18.8,24.9c9.7,5.3,25.7,8.9,46.7-4.2c0.8-0.5,1.6-1,2.4-1.5c0.5-0.3,0.9-0.5,1.3-0.8
		c0.4-0.2,0.7-0.4,1.1-0.6c0.6-0.4,1.2-0.7,1.8-1c0.2-0.1,0.4-0.2,0.5-0.3c0.7-0.4,1.4-0.8,2-1.1c0.1-0.1,0.2-0.1,0.3-0.2
		c0.7-0.4,1.4-0.8,2.1-1.1c0.1,0,0.1-0.1,0.2-0.1c0.7-0.4,1.4-0.7,2.2-1.1c0.1,0,0.1-0.1,0.2-0.1c0.8-0.4,1.5-0.7,2.3-1.1l0,0
		c6.9-3.3,13.7-5.8,20.3-7.7l0,0c-13.8-39.3,2.6-78.1,47-80.3l5.4-8.7C229.1,107.7,227.8,105,225.4,104.7z"/>
	<linearGradient id="SVGID_4_" gradientUnits="userSpaceOnUse" x1="148.6" y1="64.8625" x2="173.8" y2="64.8625">
		<stop  offset="0" style="stop-color:#ECDCC7"/>
		<stop  offset="1" style="stop-color:#FFF7E5"/>
	</linearGradient>
	<path class="st4" d="M173.8,78l-14.5-25c-1-1.7-3.5-1.7-4.5,0l-6.2,10.7L173.8,78z"/>
	<rect x="1.4" class="st5" width="345.6" height="356.5"/>
</g>
</svg>
