<?xml version="1.0" encoding="utf-8"?>
<!-- Generator: Adobe Illustrator 21.0.0, SVG Export Plug-In . SVG Version: 6.00 Build 0)  -->
<svg version="1.1" id="Capa_1" xmlns="http://www.w3.org/2000/svg" xmlns:xlink="http://www.w3.org/1999/xlink" x="0px" y="0px"
	 viewBox="0 0 274 251.1" style="enable-background:new 0 0 274 251.1;" xml:space="preserve">
<path d="M214.6,1.2c-4.8-3.3-11.1,0.8-10.2,6.5l11.3,70c0,0,9.9,64.5-31.4,92.5c-32.1,21.7-39.2,52.5-40.8,65.2
	c-0.3,2.8-2.4,5-5,5.6v-81.2H137c7.5,0,13.5-6.1,13.5-13.5c0-7.5-6.1-13.5-13.5-13.5s-13.5,6.1-13.5,13.5c0,7.5,6,13.5,13.5,13.5
	h-1.5v81.2c-2.6-0.6-4.7-2.8-5-5.6c-1.6-12.6-8.7-43.5-40.8-65.2c-41.3-27.9-31.4-92.5-31.4-92.5l11.3-70c0.9-5.7-5.4-9.8-10.2-6.5
	C23.1,26.1-0.5,68.1,0,115.6c0.8,76.3,65.5,138,141.8,135.4c73.5-2.5,132.2-62.9,132.2-136.9C274,67.2,250.5,25.9,214.6,1.2z"/>
</svg>
