<?xml version="1.0" encoding="utf-8"?>
<!-- Generator: Adobe Illustrator 21.0.0, SVG Export Plug-In . SVG Version: 6.00 Build 0)  -->
<svg version="1.1" id="Capa_1" xmlns="http://www.w3.org/2000/svg" xmlns:xlink="http://www.w3.org/1999/xlink" x="0px" y="0px"
	 viewBox="0 0 251.1 251.1" style="enable-background:new 0 0 251.1 251.1;" xml:space="preserve">
<g>
	<path d="M73.9,225.9c-0.1,0-0.2,0-0.2,0c-1.5,0-2.7-1.1-2.9-2.6l-2.4-28l-7.1,38.2c14.7,8.8,31.4,14.6,49.2,16.8l-37.3-67.5
		l3.4,40.1C76.7,224.3,75.5,225.7,73.9,225.9z"/>
	<path d="M125.5,0C56.2,0,0,56.2,0,125.5c0,43.6,22.2,82,56,104.5l8.9-49.7c0,0-1.2-0.2-1.8-1.4l-0.2-0.4l-21.4,9.9
		c-1.2,0.6-2.7,0-3.2-1.2l-1.7-3.7l-10.2,4.7c-1.2,0.6-2.7,0-3.2-1.2l-3.1-6.8c-0.6-1.2,0-2.7,1.2-3.2l10.2-4.7l-1.7-3.7
		c-0.6-1.2,0-2.7,1.2-3.2l21.4-9.9l-0.2-0.4c-0.6-1.2,0-2.7,1.2-3.2l139.2-65.9l0,0c-0.6-1.2,0-2.7,1.2-3.2l23.6-10.9
		c1.2-0.6,2.7,0,3.2,1.2l14.3,31c0.6,1.2,0,2.7-1.2,3.2L209.9,118c-1.2,0.6-2.7,0-3.2-1.2l0,0l-130.8,59l44.7,75.2c0,0,1.8,0,4.9,0
		c69.3,0,125.5-56.2,125.5-125.5S194.9,0,125.5,0z"/>
</g>
</svg>
